<?xml version="1.0" standalone="no"?>
<!DOCTYPE svg PUBLIC "-//W3C//DTD SVG 20010904//EN"
 "http://www.w3.org/TR/2001/REC-SVG-20010904/DTD/svg10.dtd">
<svg version="1.0" xmlns="http://www.w3.org/2000/svg"
 width="1200.000000pt" height="1121.000000pt" viewBox="0 0 1200.000000 1121.000000"
 preserveAspectRatio="xMidYMid meet">

<g transform="translate(0.000000,1121.000000) scale(0.100000,-0.100000)"
fill="#000000" stroke="none">
<path d="M5508 11199 c-142 -4 -304 -12 -360 -18 -57 -6 -141 -13 -188 -17
-47 -3 -116 -10 -155 -16 -367 -51 -653 -106 -889 -168 -364 -97 -696 -204
-841 -270 -49 -22 -116 -50 -190 -78 -188 -71 -603 -288 -845 -440 -496 -313
-951 -715 -1254 -1108 -225 -292 -380 -546 -497 -814 -100 -231 -129 -315
-191 -550 -34 -130 -32 -122 -52 -250 -29 -183 -36 -284 -36 -513 1 -398 39
-649 152 -997 64 -198 100 -285 200 -484 166 -334 331 -573 603 -877 108 -120
410 -412 485 -468 19 -14 75 -59 123 -98 257 -211 787 -528 1147 -688 58 -26
128 -57 157 -71 28 -13 57 -24 63 -24 6 0 8 -10 4 -24 -3 -15 -1 -27 8 -33 11
-6 122 -141 181 -218 4 -5 31 -40 60 -76 28 -36 79 -101 112 -144 33 -42 149
-190 257 -329 109 -138 222 -281 250 -319 29 -37 85 -107 123 -156 39 -49 97
-123 130 -165 33 -43 92 -117 130 -165 74 -94 151 -192 346 -441 66 -85 147
-189 179 -230 33 -41 117 -148 187 -237 71 -90 139 -178 153 -197 32 -45 58
-56 129 -56 70 0 91 11 431 224 129 82 276 173 325 204 50 31 189 119 310 195
121 77 246 156 278 176 31 20 114 74 185 119 70 46 219 142 332 213 245 154
367 232 628 401 280 182 592 382 770 494 l153 96 112 3 c141 2 189 19 252 86
42 45 95 137 95 166 0 6 34 19 78 28 42 9 97 21 122 26 25 5 119 23 210 39 91
17 183 35 205 40 22 5 78 16 125 25 47 8 99 17 115 20 286 57 548 109 637 126
62 12 142 27 178 34 36 7 115 22 175 34 61 11 153 29 205 40 52 11 148 30 214
42 l118 23 39 52 c21 29 39 57 39 63 0 5 -26 26 -57 47 -32 20 -68 46 -80 57
l-22 20 24 29 c37 44 33 86 -11 123 -35 30 -36 32 -25 70 17 62 14 68 -44 105
-38 24 -52 40 -48 50 3 8 8 29 10 46 4 29 -1 36 -67 90 -40 33 -130 106 -200
164 -69 58 -195 160 -278 228 -83 68 -154 127 -157 132 -3 5 16 33 42 62 263
293 538 730 672 1070 106 267 159 450 196 668 8 52 20 120 26 150 16 81 23
586 10 710 -29 292 -79 520 -163 750 -129 354 -234 560 -447 875 -174 256
-382 489 -697 781 -220 205 -556 446 -898 646 -73 43 -542 281 -611 310 -230
98 -570 221 -765 278 -41 12 -95 28 -120 36 -81 25 -393 102 -465 115 -38 6
-99 18 -135 26 -36 7 -105 20 -155 28 -49 8 -128 21 -175 29 -199 36 -889 90
-1070 84 -25 -1 -161 -5 -302 -9z m752 -250 c363 -26 549 -49 910 -116 391
-71 1015 -256 1295 -383 11 -5 65 -28 120 -50 260 -108 608 -295 890 -478 382
-249 761 -590 1067 -962 63 -76 83 -104 193 -270 159 -240 258 -426 329 -618
24 -64 49 -128 54 -142 37 -89 86 -285 117 -460 9 -52 21 -120 26 -150 5 -30
13 -126 16 -212 l6 -158 -90 0 -90 0 -7 -127 c-10 -194 -30 -339 -81 -563 -19
-86 -29 -119 -60 -209 -147 -422 -321 -729 -626 -1101 -45 -55 -86 -100 -90
-100 -5 0 -22 12 -39 28 l-30 27 28 30 c173 186 373 476 492 715 97 193 206
488 248 670 37 156 72 432 72 557 l0 83 40 0 40 0 0 84 c0 223 -57 550 -137
786 -188 558 -462 981 -930 1440 -270 265 -434 391 -855 658 -118 75 -565 299
-743 372 -82 34 -163 67 -180 75 -49 21 -292 105 -400 137 -111 33 -108 32
-185 52 -30 8 -89 24 -130 36 -84 23 -216 53 -330 75 -100 19 -288 54 -325 60
-61 10 -273 36 -375 45 -58 6 -150 15 -205 21 -152 16 -654 22 -895 10 -660
-34 -1386 -174 -1955 -378 -38 -13 -79 -29 -90 -33 -11 -5 -73 -30 -138 -55
-269 -105 -612 -273 -857 -419 -47 -28 -92 -54 -100 -59 -45 -23 -225 -146
-303 -208 -479 -378 -731 -639 -993 -1029 -231 -345 -348 -606 -445 -992 -16
-64 -31 -134 -35 -155 -3 -21 -7 -46 -10 -56 -11 -37 -36 -257 -41 -359 l-5
-107 38 -3 39 -3 7 -90 c11 -155 37 -377 52 -455 58 -299 212 -693 372 -952
122 -198 327 -465 489 -638 212 -226 459 -434 725 -610 166 -110 259 -170 264
-170 2 0 33 -17 67 -38 35 -22 122 -69 192 -107 70 -37 126 -70 123 -72 -3 -3
15 -30 41 -60 25 -29 43 -56 40 -59 -9 -9 -212 91 -387 191 -85 49 -164 93
-175 99 -23 13 -135 87 -150 99 -5 5 -55 39 -110 77 -55 38 -104 72 -110 77
-5 4 -57 44 -115 88 -204 154 -521 464 -662 645 -15 19 -52 67 -83 105 -149
186 -324 485 -431 736 -41 98 -134 376 -150 454 -9 39 -18 79 -20 90 -21 83
-45 287 -51 423 l-6 162 -95 0 -95 0 7 148 c10 193 33 355 85 582 44 195 181
541 291 735 182 323 299 485 539 748 173 191 211 228 337 337 196 169 231 195
494 383 83 59 284 182 406 247 43 24 94 52 114 63 100 56 306 154 446 213 212
88 432 175 469 184 17 5 75 22 130 40 610 191 1206 296 1873 330 202 10 618 5
832 -11z m-70 -289 c41 -5 127 -12 190 -15 63 -3 144 -10 180 -15 328 -45 441
-64 630 -104 295 -63 559 -135 785 -215 174 -60 161 -56 345 -130 404 -162
917 -461 1251 -729 267 -214 499 -449 696 -704 126 -164 156 -208 251 -379
201 -362 307 -664 364 -1044 18 -123 18 -640 0 -750 -52 -311 -109 -503 -230
-781 -65 -148 -192 -372 -291 -514 -48 -69 -200 -260 -236 -297 l-22 -23 -39
28 c-76 55 -77 48 28 179 172 215 251 337 378 584 112 220 187 434 244 700 60
281 59 673 -3 1021 -48 273 -224 701 -393 958 -181 273 -272 385 -508 620
-595 595 -1442 1044 -2440 1293 -223 56 -264 65 -380 82 -52 8 -138 22 -190
31 -208 35 -409 54 -714 70 -295 15 -344 15 -640 0 -301 -15 -517 -36 -716
-70 -47 -8 -130 -22 -185 -30 -192 -31 -429 -86 -650 -153 -147 -44 -530 -174
-570 -193 -11 -5 -42 -18 -70 -29 -27 -10 -97 -41 -155 -69 -58 -27 -127 -60
-155 -72 -276 -124 -656 -369 -982 -633 -148 -119 -409 -385 -544 -554 -283
-355 -472 -724 -575 -1123 -67 -257 -95 -559 -76 -808 28 -367 89 -613 232
-937 121 -275 264 -495 504 -775 176 -206 312 -336 546 -523 202 -162 480
-343 720 -470 45 -24 219 -241 197 -245 -19 -4 -73 22 -267 124 -187 98 -261
142 -390 231 -58 40 -112 77 -120 83 -400 268 -822 690 -1083 1081 -31 47 -57
89 -57 92 0 4 -18 36 -40 72 -93 152 -224 450 -272 619 -48 166 -83 340 -103
498 -17 142 -21 493 -6 579 6 30 17 106 27 169 42 293 147 600 312 910 30 58
67 123 82 145 14 22 31 51 38 65 13 25 150 220 162 230 3 3 27 34 54 70 146
197 454 497 685 670 234 174 328 239 485 332 260 156 385 219 746 375 296 128
681 246 1110 338 41 9 93 21 115 26 22 5 69 14 105 20 65 10 93 14 295 44 379
55 1065 78 1345 45z m-1730 -516 c0 -155 -3 -194 -13 -194 -8 0 -65 18 -128
41 -63 22 -135 48 -161 56 l-48 16 0 103 0 104 28 6 c15 3 47 12 72 19 85 24
232 53 243 48 4 -3 7 -92 7 -199z m1302 -99 c65 -29 418 -165 428 -165 6 0 10
-77 10 -206 0 -161 -3 -205 -12 -202 -7 3 -118 43 -245 89 l-233 84 0 207 c0
127 4 208 10 208 5 0 24 -7 42 -15z m-1314 -148 c17 -13 15 -37 -4 -37 -9 0
-87 25 -175 56 -144 51 -159 59 -159 80 0 23 2 22 163 -33 89 -31 168 -60 175
-66z m-1402 -874 c-4 -4 -41 5 -179 44 l-57 17 2 345 3 344 115 58 115 58 3
-431 c1 -237 0 -433 -2 -435z m1244 718 l165 -58 0 -489 c0 -483 0 -489 -20
-486 -11 2 -89 24 -172 49 l-153 46 0 498 c0 275 3 499 8 499 4 0 81 -27 172
-59z m1678 -232 c209 -75 232 -86 232 -106 0 -20 -2 -22 -27 -12 -31 12 -199
73 -313 114 -41 14 -84 30 -95 35 -11 4 -28 11 -37 14 -10 3 -18 15 -18 27 0
13 5 19 13 17 6 -3 117 -42 245 -89z m492 37 l105 -42 3 -922 c1 -507 -1 -922
-4 -922 -7 0 -96 24 -171 46 l-53 16 0 934 c0 514 3 934 8 933 4 0 54 -20 112
-43z m-552 -95 c103 -38 211 -77 240 -87 42 -15 52 -23 52 -41 0 -25 10 -27
-130 24 -52 19 -117 43 -145 53 -206 75 -210 77 -213 99 -2 11 -1 21 2 21 4 0
90 -31 194 -69z m-3 -89 c61 -22 152 -54 203 -72 l92 -33 0 -743 c0 -409 -1
-744 -3 -744 -2 0 -100 26 -217 59 -118 32 -227 61 -242 65 l-28 6 0 765 0
764 43 -13 c23 -7 92 -31 152 -54z m1423 -119 l3 -61 -125 47 -126 46 0 62 0
61 123 -47 122 -47 3 -61z m-5290 -349 c-2 -1 -63 12 -136 29 l-132 32 0 32
c0 27 12 42 78 101 42 39 102 90 132 114 l55 44 3 -174 c1 -96 1 -176 0 -178z
m5260 264 l32 -12 0 -838 c0 -697 -2 -838 -14 -838 -7 0 -26 4 -42 9 -40 12
-101 29 -151 41 l-43 11 0 854 0 854 93 -34 c50 -19 107 -40 125 -47z m-4338
-200 c74 -20 85 -26 88 -47 4 -27 5 -27 -123 10 -99 29 -115 36 -115 55 0 19
15 17 150 -18z m-1160 -26 c19 -5 163 -44 320 -87 157 -43 317 -86 355 -97 39
-10 120 -32 180 -48 61 -16 160 -43 220 -60 61 -17 151 -42 200 -55 78 -21
626 -171 710 -195 17 -5 73 -20 125 -33 52 -14 187 -51 300 -82 113 -32 243
-67 290 -79 47 -13 213 -58 370 -101 157 -43 314 -86 350 -96 36 -10 166 -45
290 -79 124 -34 248 -67 275 -74 28 -8 176 -48 330 -91 154 -43 303 -83 330
-90 28 -8 156 -42 285 -78 264 -72 290 -79 307 -83 6 -1 53 -14 105 -28 160
-46 188 -54 383 -106 220 -60 235 -64 577 -156 l258 -69 0 -61 0 -62 -87 23
c-49 12 -176 46 -283 75 -107 29 -201 53 -210 55 -8 2 -60 15 -115 30 -55 15
-192 51 -305 81 -113 29 -221 58 -240 64 -19 5 -138 37 -265 70 -126 33 -252
66 -280 74 -27 7 -149 39 -270 71 -121 31 -249 65 -285 75 -112 31 -178 48
-415 110 -126 33 -246 65 -265 70 -41 12 -375 100 -399 105 -23 6 -112 29
-221 58 -52 14 -147 39 -210 56 -63 16 -142 37 -175 46 -33 9 -112 30 -175 46
-63 17 -180 48 -260 69 -80 21 -266 70 -415 109 -148 39 -295 78 -325 86 -69
19 -508 135 -790 209 -118 31 -240 63 -270 71 -30 8 -149 40 -265 70 -115 31
-218 58 -227 61 -24 7 -10 33 51 97 49 52 55 53 141 29z m1146 -69 l104 -28 0
-92 c0 -104 2 -102 -76 -78 -27 8 -75 21 -106 30 l-58 16 0 89 c0 76 3 90 16
90 9 0 63 -12 120 -27z m4989 -134 c60 -22 127 -48 148 -56 l37 -16 0 -559 c0
-359 -4 -558 -10 -558 -5 0 -49 12 -97 26 -49 15 -116 33 -150 42 l-63 16 0
573 c0 441 3 573 12 573 7 0 62 -18 123 -41z m-3770 -126 c11 -3 80 -23 154
-44 74 -22 136 -39 138 -39 1 0 3 -58 3 -130 0 -78 -4 -130 -10 -130 -10 0
-254 64 -307 81 l-33 11 0 135 c0 125 1 135 18 128 9 -4 26 -10 37 -12z
m-2314 -279 c30 -8 84 -24 122 -35 l67 -20 0 -178 0 -178 -92 22 c-51 13 -112
28 -135 34 l-43 12 0 179 c0 142 3 180 13 180 7 0 38 -7 68 -16z m1534 -364
c83 -23 167 -45 188 -51 l37 -10 0 -196 0 -195 -22 4 c-33 7 -264 67 -325 85
l-53 14 0 195 c0 149 3 194 13 194 6 0 80 -18 162 -40z m-1559 -69 c16 -5 63
-17 104 -26 41 -9 83 -19 93 -21 14 -5 17 -17 17 -80 0 -41 -3 -74 -7 -74 -5
0 -65 14 -135 32 l-128 32 0 73 c0 79 2 81 56 64z m1224 -219 c0 -122 -1 -133
-17 -128 -26 8 -214 56 -219 56 -6 0 -5 256 1 262 3 2 57 -9 120 -26 l115 -31
0 -133z m1230 24 c80 -21 152 -41 160 -45 13 -7 15 -46 18 -240 2 -206 1 -231
-14 -231 -8 0 -75 15 -147 34 -73 18 -144 37 -159 40 l-28 6 0 241 c0 189 3
240 13 237 6 -3 77 -22 157 -42z m-2454 15 c16 -5 63 -17 104 -26 108 -24 110
-24 110 -46 0 -24 -3 -24 -109 1 -150 35 -161 39 -161 60 0 22 13 24 56 11z
m79 -96 c55 -13 108 -25 118 -25 16 0 17 -36 17 -611 l0 -611 -22 6 c-13 3
-74 14 -135 23 l-113 17 0 613 c0 577 1 613 18 613 9 0 62 -11 117 -25z m1470
-106 c88 -22 168 -42 178 -44 55 -12 57 -15 57 -67 0 -43 -3 -50 -17 -46 -10
2 -100 24 -200 49 l-183 44 0 53 c0 28 1 52 3 52 1 0 74 -18 162 -41z m-440
-4 c44 -9 88 -19 98 -22 16 -4 17 -45 17 -689 l0 -685 -32 5 c-18 3 -68 10
-112 16 -43 6 -82 13 -87 16 -10 6 -13 1367 -2 1377 4 4 14 5 22 3 9 -3 52
-12 96 -21z m-519 -30 c230 -54 224 -51 224 -81 0 -28 -1 -28 -66 -10 -27 8
-92 24 -144 36 -192 44 -210 50 -210 76 0 13 1 24 3 24 2 0 89 -20 193 -45z
m1435 -7 l79 -21 0 -150 c0 -134 -2 -148 -16 -143 -9 4 -47 13 -85 22 l-69 16
0 149 c0 82 3 149 6 149 4 0 42 -10 85 -22z m-436 -145 c77 -19 152 -37 168
-40 l27 -5 0 -684 c0 -376 -3 -684 -7 -684 -5 0 -75 12 -158 26 -82 14 -169
28 -192 31 l-43 6 0 699 0 700 33 -7 c17 -4 95 -23 172 -42z m879 -153 c87
-22 160 -40 162 -40 6 0 5 -36 -1 -42 -5 -4 -256 55 -323 76 -23 8 -32 46 -9
46 6 0 84 -18 171 -40z m-422 -91 c9 -5 26 -9 37 -9 21 0 21 0 21 -610 l0
-610 -42 6 c-24 4 -61 10 -83 13 l-40 7 -3 613 -2 613 47 -7 c27 -4 56 -11 65
-16z m2601 -85 l97 -27 0 -482 0 -482 -42 -11 c-24 -6 -65 -16 -93 -21 -27 -6
-60 -13 -72 -17 l-23 -6 0 542 c0 511 1 541 18 536 9 -3 61 -17 115 -32z m752
-122 l100 -27 3 -58 c2 -34 -1 -57 -7 -57 -6 0 -57 12 -113 26 -57 15 -109 27
-115 27 -9 0 -13 20 -13 64 0 61 1 63 23 58 12 -4 67 -18 122 -33z m-70 -141
c22 -5 69 -18 105 -28 l65 -18 3 -333 2 -332 -125 0 -125 0 0 366 c0 343 1
365 18 360 9 -3 35 -10 57 -15z m895 -429 l65 -17 3 -82 c3 -79 2 -83 -20 -87
-129 -25 -257 -46 -275 -46 -23 0 -23 1 -23 148 l0 149 93 -25 c50 -13 121
-31 157 -40z m-6112 12 l102 -18 0 -209 0 -209 -37 5 c-21 2 -82 10 -135 18
l-98 13 0 214 0 214 33 -4 c17 -3 78 -13 135 -24z m6747 -294 c180 -146 546
-445 610 -498 11 -10 63 -51 115 -93 100 -81 271 -220 436 -355 55 -44 234
-190 399 -324 385 -313 478 -388 600 -489 55 -45 153 -125 218 -178 66 -53
121 -103 124 -110 4 -9 -18 -38 -53 -74 -120 -122 -323 -197 -694 -259 -70
-12 -198 -27 -375 -45 -327 -33 -509 -61 -640 -100 -49 -15 -118 -35 -152 -45
-227 -67 -476 -234 -578 -389 l-27 -41 -28 23 c-40 34 -141 121 -244 212 -51
44 -121 105 -156 135 -35 30 -109 95 -164 144 -56 49 -117 103 -137 120 -62
53 -308 267 -408 355 -53 46 -123 107 -156 136 -33 29 -103 90 -155 136 -53
46 -124 109 -160 139 -35 30 -87 75 -115 100 -28 25 -80 70 -115 100 -35 30
-127 111 -204 179 -191 167 -278 243 -427 371 -35 30 -86 75 -114 100 -28 25
-80 70 -115 100 -35 30 -82 72 -104 93 -22 20 -44 37 -48 37 -17 0 -5 20 48
79 31 34 84 81 118 104 87 59 242 133 333 158 43 11 101 27 128 35 99 28 227
36 675 43 251 4 460 10 465 13 6 3 60 11 120 17 132 14 368 61 491 97 49 15
103 30 119 34 17 4 64 22 105 39 41 17 82 31 90 31 8 0 87 -58 175 -130z
m-5717 20 c76 -12 82 -15 82 -37 0 -28 2 -28 -123 -2 -113 23 -117 24 -117 46
0 17 6 16 158 -7z m-1803 -40 c28 -6 133 -24 235 -41 102 -16 223 -37 270 -45
119 -21 240 -41 415 -69 177 -28 296 -48 420 -70 50 -9 144 -25 210 -35 66
-11 161 -26 210 -35 113 -20 258 -44 310 -51 22 -2 51 -7 65 -10 14 -3 66 -12
115 -20 125 -21 244 -41 350 -59 50 -9 142 -24 205 -35 63 -10 167 -27 230
-38 63 -11 178 -30 255 -43 77 -12 172 -27 210 -33 l70 -12 -40 -13 c-22 -7
-84 -31 -139 -53 l-99 -41 -71 13 c-39 6 -127 21 -196 31 -69 11 -165 26 -215
34 -49 8 -135 21 -190 30 -55 9 -111 18 -125 20 -14 3 -68 12 -120 20 -52 8
-140 22 -195 31 -55 8 -109 17 -120 19 -37 5 -299 46 -387 61 -236 38 -280 45
-368 59 -52 9 -167 27 -255 40 -88 14 -203 32 -255 40 -52 9 -151 25 -220 35
-123 20 -224 36 -410 66 -117 19 -112 19 -187 28 -58 8 -62 10 -76 45 -39 94
-57 140 -57 147 0 7 74 -1 155 -16z m1818 -62 l67 -12 0 -88 c0 -101 10 -95
-117 -77 -43 6 -87 12 -98 13 -18 1 -20 9 -23 80 -2 44 0 86 3 94 6 16 34 14
168 -10z m328 -59 c61 -11 280 -48 292 -49 4 0 7 -48 7 -106 l0 -107 -37 6
c-21 3 -76 13 -123 21 -47 9 -120 21 -162 28 l-78 12 0 103 c0 118 -5 113 101
92z m617 -194 l3 -108 -53 7 c-29 4 -68 9 -85 12 l-33 6 0 107 c0 59 2 110 5
113 3 2 40 -3 82 -12 l78 -16 3 -109z m1859 -247 c21 -18 49 -43 63 -54 14
-12 91 -80 171 -150 144 -127 316 -277 440 -384 35 -30 86 -75 114 -100 28
-25 71 -62 95 -83 70 -60 299 -260 454 -396 163 -144 230 -202 341 -298 43
-37 86 -75 95 -83 9 -8 76 -67 150 -130 73 -63 197 -171 275 -240 166 -146
427 -374 470 -410 16 -14 50 -44 75 -67 l45 -43 -39 0 c-22 0 -80 5 -128 11
-192 25 -598 -43 -823 -137 -146 -61 -299 -143 -400 -214 -412 -293 -634 -405
-1090 -553 -290 -94 -659 -177 -985 -222 -52 -7 -115 -16 -140 -20 l-45 -6
-65 88 c-35 48 -67 90 -70 93 -3 3 -100 131 -215 285 -115 154 -275 368 -355
475 -81 107 -207 276 -281 375 -75 99 -245 326 -379 505 -134 179 -289 386
-345 460 -55 74 -193 258 -306 410 l-206 275 351 7 c346 6 413 11 571 42 44 9
105 21 135 27 122 23 369 110 458 161 151 86 357 176 529 232 237 76 407 112
698 146 310 37 297 37 342 -2z m-2635 -1333 c152 -203 280 -374 285 -380 15
-18 218 -289 233 -312 8 -12 87 -118 176 -235 88 -117 212 -283 276 -368 63
-85 203 -271 309 -412 107 -142 252 -336 324 -433 145 -195 129 -185 250 -165
33 5 125 19 205 30 80 11 177 26 215 34 39 8 108 21 155 30 83 17 311 74 400
101 291 89 442 146 637 240 204 98 303 156 471 274 145 102 274 183 352 220
43 21 44 21 20 2 -14 -11 -28 -21 -33 -21 -27 -1 -165 -100 -378 -271 -121
-98 -264 -196 -359 -246 -317 -170 -451 -232 -665 -308 -285 -102 -392 -134
-645 -195 -336 -80 -387 -91 -401 -85 -8 3 -26 23 -40 43 -15 20 -69 92 -120
159 -52 66 -139 181 -194 253 -55 73 -104 138 -110 144 -10 11 -29 36 -215
281 -46 61 -106 139 -134 175 -28 36 -100 130 -160 210 -60 80 -129 170 -154
200 -24 30 -49 62 -55 70 -7 8 -54 71 -106 140 -116 154 -254 334 -484 635
-97 127 -182 238 -189 247 -44 58 -131 171 -180 234 -32 41 -58 76 -58 79 0 4
21 5 48 3 l47 -3 277 -370z m-122 -73 c36 -48 125 -166 198 -262 74 -96 143
-188 155 -204 12 -16 72 -93 132 -172 126 -163 128 -165 253 -328 51 -66 98
-128 105 -136 6 -9 39 -52 72 -95 68 -90 332 -436 409 -535 28 -36 86 -112
130 -170 43 -58 100 -132 126 -165 25 -33 112 -146 192 -251 l146 -191 94 18
c51 9 122 24 158 32 36 8 99 23 140 31 41 9 107 26 145 37 39 11 95 27 125 35
119 34 512 168 630 216 141 57 395 182 515 253 118 70 185 117 343 239 198
154 299 227 357 260 76 44 17 -4 -118 -95 -38 -25 -112 -86 -165 -135 -203
-187 -395 -335 -562 -434 -177 -105 -255 -147 -380 -208 -184 -87 -307 -140
-442 -188 -40 -14 -86 -32 -103 -40 -91 -40 -597 -194 -639 -194 -9 0 -34 24
-57 53 -78 100 -164 209 -214 271 -27 34 -61 77 -75 96 -31 41 -456 581 -594
755 -35 44 -85 107 -110 140 -25 33 -70 90 -99 127 -28 36 -95 121 -147 188
-52 67 -126 162 -165 210 -38 48 -124 156 -190 240 -66 85 -149 191 -185 236
-36 45 -94 120 -130 166 -36 45 -70 90 -77 98 -7 8 -40 51 -75 95 -34 44 -67
83 -73 87 -5 4 17 8 50 7 l60 0 65 -87z m8205 -194 c19 -13 35 -30 35 -40 0
-20 -90 -103 -139 -127 -189 -95 -599 -171 -931 -172 -132 0 -327 -10 -470
-23 -54 -5 -54 -5 -10 4 52 11 270 35 450 51 228 19 405 49 555 91 206 59 373
138 439 207 17 17 31 31 33 31 2 0 19 -10 38 -22z m-8068 -233 c73 -93 249
-318 391 -498 141 -180 266 -340 277 -354 11 -14 43 -54 70 -88 28 -34 60 -75
72 -91 36 -47 171 -220 281 -359 209 -266 254 -323 369 -470 64 -82 144 -184
177 -226 34 -42 93 -118 131 -168 56 -74 74 -91 90 -86 11 3 56 15 100 26 246
63 723 231 940 331 442 204 620 307 894 515 69 52 96 75 246 210 136 122 280
233 301 233 3 0 -29 -28 -72 -62 -43 -35 -149 -130 -236 -213 -276 -262 -332
-310 -593 -500 -228 -166 -730 -426 -1123 -581 -89 -35 -168 -64 -175 -64 -7
0 -17 -4 -23 -9 -14 -14 -171 -63 -187 -59 -14 3 -36 29 -212 248 -178 222
-314 390 -363 450 -29 36 -59 72 -65 80 -7 8 -66 82 -132 163 -66 82 -131 164
-145 182 -14 18 -90 113 -170 210 -80 97 -154 189 -165 204 -20 28 -96 122
-105 131 -3 3 -50 61 -104 130 -55 69 -123 152 -150 185 -28 34 -64 78 -81 99
-16 22 -41 53 -55 69 -14 17 -114 141 -222 276 l-197 246 32 6 c18 4 41 6 51
5 13 -1 68 -62 153 -171z m8144 57 l22 -19 -44 -43 c-48 -46 -157 -101 -248
-125 -31 -7 -110 -24 -176 -36 -109 -20 -159 -22 -540 -25 -246 -1 -399 1
-370 6 28 5 115 9 195 9 127 2 309 12 450 27 130 13 343 63 452 106 81 32 193
92 204 109 8 14 30 10 55 -9z m-8054 -419 c83 -104 194 -242 248 -308 53 -66
109 -135 123 -154 15 -19 39 -48 53 -65 14 -17 66 -80 114 -141 49 -60 179
-222 290 -360 110 -137 239 -297 286 -355 77 -96 277 -343 306 -380 6 -8 27
-33 45 -56 18 -22 47 -58 63 -79 17 -21 53 -66 80 -99 28 -34 83 -102 123
-152 l73 -92 102 33 c406 129 954 377 1244 562 29 18 55 33 58 33 9 0 240 155
325 218 141 105 245 197 458 404 117 114 222 213 235 219 12 7 -3 -10 -33 -37
-30 -27 -107 -103 -170 -169 -449 -470 -535 -544 -925 -806 -270 -181 -347
-226 -645 -380 -100 -52 -539 -249 -554 -249 -4 0 -76 83 -161 185 -22 27 -69
83 -105 125 -36 42 -101 121 -145 175 -44 54 -94 114 -111 134 -29 34 -250
299 -339 407 -22 26 -67 80 -100 119 -33 39 -78 93 -100 120 -22 27 -56 67
-75 90 -19 23 -51 62 -72 86 -20 24 -72 87 -115 139 -44 52 -168 201 -275 330
-165 198 -273 328 -511 613 -18 21 -33 42 -35 46 -2 6 53 26 84 30 6 0 79 -83
161 -186z m8157 163 c-6 -16 -36 -23 -224 -56 -63 -11 -137 -25 -165 -30 -27
-6 -142 -26 -255 -46 -113 -19 -241 -41 -285 -49 -44 -8 -132 -23 -195 -34
-63 -11 -151 -27 -195 -35 -44 -8 -93 -17 -110 -20 -16 -3 -70 -12 -120 -21
-49 -9 -139 -25 -200 -35 -60 -10 -202 -35 -315 -56 -252 -44 -363 -64 -372
-64 -5 0 -8 -15 -8 -34 0 -18 -14 -61 -32 -95 -25 -48 -43 -69 -78 -89 -41
-25 -54 -27 -167 -29 l-122 -1 -68 -42 c-87 -52 -435 -276 -951 -610 -81 -53
-226 -145 -322 -204 -96 -60 -191 -119 -210 -131 -157 -100 -491 -313 -577
-367 -57 -38 -106 -68 -109 -68 -2 0 -23 -13 -46 -29 -159 -106 -462 -296
-538 -337 -14 -8 -81 -50 -150 -93 -245 -156 -380 -232 -405 -229 -19 2 20 31
180 133 112 72 244 156 292 187 48 32 98 63 111 70 13 7 105 65 205 129 100
64 308 196 462 294 154 97 320 203 368 234 48 31 113 72 145 92 31 20 138 88
237 151 99 63 293 186 430 273 138 87 296 188 352 224 110 71 273 175 471 300
l123 78 37 -13 c56 -20 156 -18 200 5 65 34 120 105 147 193 12 38 23 56 34
56 9 0 59 7 111 16 52 9 147 25 210 36 63 11 153 26 200 34 81 15 198 35 735
126 408 70 647 111 730 125 44 8 154 26 245 41 91 14 167 28 169 30 11 10 30
2 25 -10z"/>
</g>
</svg>
